<svg xmlns="http://www.w3.org/2000/svg" xmlns:xlink="http://www.w3.org/1999/xlink" width="500" zoomAndPan="magnify" viewBox="0 0 375 374.999991" height="500" preserveAspectRatio="xMidYMid meet" version="1.0"><defs><clipPath id="1423bcbd05"><path d="M 16.210938 3 L 358.960938 3 L 358.960938 372.488281 L 16.210938 372.488281 Z M 16.210938 3 " clip-rule="nonzero"/></clipPath></defs><g clip-path="url(#1423bcbd05)"><path fill="#000000" d="M 268.335938 37.679688 C 264.320312 54.367188 253.128906 63.375 234.609375 51.25 C 226.730469 51.09375 218.894531 53.160156 211.175781 57.449219 C 225.328125 41.148438 244.394531 34.558594 268.335938 37.679688 M 121.148438 77.609375 C 101.652344 108.0625 90.1875 146.472656 86.835938 192.839844 C 76.113281 243.492188 52.601562 279.835938 16.300781 301.828125 C 139.746094 289.9375 176.160156 358.097656 187.585938 372.488281 C 200.960938 359.308594 228.914062 286.621094 358.871094 301.828125 C 300.152344 263.691406 270.324219 208.28125 268.296875 155.246094 C 267.320312 129.550781 279.214844 106.347656 309.664062 93.753906 C 327.640625 86.34375 345.027344 88.800781 340.777344 108.804688 C 354.464844 94.726562 358.792969 77.609375 353.800781 57.449219 C 346.78125 32.296875 326.625 21.964844 293.289062 26.410156 C 284.4375 6.792969 243.574219 2.738281 212.5 3.792969 C 162.242188 5.507812 123.992188 41.304688 92.488281 78.351562 C 101.925781 76.59375 111.476562 76.359375 121.148438 77.609375 Z M 121.148438 77.609375 " fill-opacity="1" fill-rule="evenodd"/></g></svg>