<svg xmlns="http://www.w3.org/2000/svg" xmlns:xlink="http://www.w3.org/1999/xlink" width="500" zoomAndPan="magnify" viewBox="0 0 375 374.999991" height="500" preserveAspectRatio="xMidYMid meet" version="1.0"><defs><clipPath id="f77b89ac90"><path d="M 187.5 0 C 252.929688 0 296.523438 0 327.078125 22.203125 C 336.949219 29.371094 345.628906 38.050781 352.796875 47.921875 C 375 78.476562 375 122.070312 375 187.5 C 375 252.929688 375 296.523438 352.796875 327.078125 C 345.628906 336.949219 336.949219 345.628906 327.078125 352.796875 C 296.523438 375 252.929688 375 187.5 375 C 122.070312 375 78.476562 375 47.921875 352.796875 C 38.050781 345.628906 29.371094 336.949219 22.203125 327.078125 C 0 296.523438 0 252.929688 0 187.5 C 0 122.070312 0 78.476562 22.203125 47.921875 C 29.371094 38.050781 38.050781 29.371094 47.921875 22.203125 C 78.476562 0 122.070312 0 187.5 0 Z M 187.5 0 " clip-rule="nonzero"/></clipPath><clipPath id="addf146a50"><path d="M 0 0 L 375 0 L 375 375 L 0 375 Z M 0 0 " clip-rule="nonzero"/></clipPath><clipPath id="9fc55ac73a"><path d="M 187.5 0 C 252.929688 0 296.523438 0 327.078125 22.203125 C 336.949219 29.371094 345.628906 38.050781 352.796875 47.921875 C 375 78.476562 375 122.070312 375 187.5 C 375 252.929688 375 296.523438 352.796875 327.078125 C 345.628906 336.949219 336.949219 345.628906 327.078125 352.796875 C 296.523438 375 252.929688 375 187.5 375 C 122.070312 375 78.476562 375 47.921875 352.796875 C 38.050781 345.628906 29.371094 336.949219 22.203125 327.078125 C 0 296.523438 0 252.929688 0 187.5 C 0 122.070312 0 78.476562 22.203125 47.921875 C 29.371094 38.050781 38.050781 29.371094 47.921875 22.203125 C 78.476562 0 122.070312 0 187.5 0 Z M 187.5 0 " clip-rule="nonzero"/></clipPath><clipPath id="eb9a4f9694"><rect x="0" width="375" y="0" height="375"/></clipPath><clipPath id="fd598cacf2"><path d="M 3 32 L 374 32 L 374 354 L 3 354 Z M 3 32 " clip-rule="nonzero"/></clipPath><clipPath id="4576654c37"><path d="M 381.875 183.253906 L 218.089844 470.605469 L -127.902344 273.390625 L 35.882812 -13.957031 Z M 381.875 183.253906 " clip-rule="nonzero"/></clipPath><clipPath id="8d58a03660"><path d="M 381.875 183.253906 L 218.089844 470.605469 L -127.902344 273.390625 L 35.882812 -13.957031 Z M 381.875 183.253906 " clip-rule="nonzero"/></clipPath><clipPath id="2624d32ec0"><path d="M 381.875 183.253906 L 218.089844 470.605469 L -127.902344 273.390625 L 35.882812 -13.957031 Z M 381.875 183.253906 " clip-rule="nonzero"/></clipPath></defs><g clip-path="url(#f77b89ac90)"><g transform="matrix(1, 0, 0, 1, 0, 0)"><g clip-path="url(#eb9a4f9694)"><g clip-path="url(#addf146a50)"><g clip-path="url(#9fc55ac73a)"><rect x="-82.5" width="540" fill="#ffffff" height="539.999987" y="-82.499998" fill-opacity="1"/></g></g></g></g></g><g clip-path="url(#fd598cacf2)"><g clip-path="url(#4576654c37)"><g clip-path="url(#8d58a03660)"><g clip-path="url(#2624d32ec0)"><path fill="#1d1d1b" d="M 23.566406 352.238281 L 363.164062 206.375 C 369.71875 203.558594 373.941406 197.117188 373.921875 189.96875 C 373.898438 182.804688 369.628906 176.421875 363.039062 173.707031 L 22.558594 33.386719 C 17.402344 31.339844 11.53125 32.574219 7.605469 36.535156 C 6.726562 37.421875 5.984375 38.40625 5.386719 39.457031 C 3.316406 43.089844 2.949219 47.527344 4.546875 51.53125 L 60.859375 192.492188 L 5.363281 334.378906 C 3.335938 339.570312 4.578125 345.441406 8.527344 349.339844 C 12.484375 353.246094 18.367188 354.390625 23.566406 352.238281 Z M 23.566406 352.238281 " fill-opacity="1" fill-rule="nonzero"/></g></g></g></g></svg>